<svg width="500pt" height="500pt" viewBox="0 0 500 500" xmlns="http://www.w3.org/2000/svg"><g fill="#2e2d2b"><path d="M247.42 0h6.14c34.65.62 69.21 8.21 100.7 22.77 57.42 26.18 104.06 74.97 127.54 133.56 11.75 28.86 17.76 59.95 18.2 91.09v6.14c-.62 34.65-8.21 69.21-22.77 100.69-26.18 57.43-74.98 104.07-133.56 127.55-28.87 11.75-59.95 17.76-91.09 18.2h-5.16c-35.24-.46-70.4-8.2-102.37-23.09C87.94 450.66 41.59 402.02 18.2 343.67 6.45 314.81.44 283.72 0 252.58v-5.16c.43-31.14 6.45-62.23 18.2-91.09C41.68 97.75 88.32 48.95 145.74 22.77 177.52 8.08 212.44.46 247.42 0M262 83.92c-26.83 9.34-51.07 25.69-70.14 46.72-11.96.06-23.91-.23-35.86.13-5.45-.17-10.82 4.58-10.24 10.23-.17 6.35 6.3 10.78 12.19 10.49 33.03-.05 66.06.01 99.09-.04 2.04-.03 4.18.21 5.88 1.46-28.87-1.26-57.97-.38-86.92-.42-4.99 4.8-7.57 12.19-11.07 18.3-10.66.11-21.31 0-31.96.12-5.39-.27-10.31 4.71-9.8 10.11-.12 6.06 6.03 10.7 11.78 10.44 7.15.08 14.32-.17 21.47.19-1.72 6.4-3.69 12.75-4.85 19.29-40.53.14-81.07-.15-121.6.07-6.36-.8-11.89 5.83-10.22 11.92 1.27 5.38 6.91 8.77 12.24 8.55 76.35-.05 152.7.03 229.05-.01 1.76-.01 3.61.19 5.04 1.33-5.61-1.13-11.4-.54-17.08-.84-33.45.22-66.93-.42-100.37.33-.43 6-.32 12-.47 18-.96.16-1.92.24-2.89.26-23.08.26-46.18.01-69.26.12-6.12-.01-11.53 6.19-9.91 12.29 1.29 5.71 7.4 8.73 12.89 8.46 42 .05 84-.01 126 .01 2.08.04 4.36.01 6.08 1.37-20.06-2.06-40.41-.39-60.59-.91.88 6.39 2.55 12.62 3.98 18.9-9.17.14-18.34.03-27.51.18-5.28-.21-9.75 4.87-9.34 10.04-.07 5.88 5.75 10.41 11.32 10.46 11.14.13 22.28-.22 33.41.17 16.24 39.45 48.89 72.04 88.18 88.62-.81-1.36-1.59-2.74-2.33-4.13.52.11 1.56.32 2.09.43 1.6-17.28 3.21-34.77 8.08-51.48.18.47.55 1.41.74 1.88-3.92 17.74-6 35.81-7.96 53.86 42.12 18.16 91.6 18.34 133.76.22 31.66-13.43 59-36.73 77.32-65.83 17.91-28.2 27.1-61.8 26.14-95.19-.76-33.54-11.82-66.73-31.31-94.02-19.12-26.96-46.24-48.18-77.06-60.11C342.56 71.24 299.9 70.55 262 83.92M66.47 171.67c-8.54 3.63-7.15 16.91 1.7 19.12 8.81 1.54 17.91.25 26.84.71 6.06.74 12.51-4.21 12.53-10.47.55-6.09-5.85-10.74-11.54-10.26-9.83.3-19.85-.86-29.53.9m8.77 119.65c-4.3 1.04-7.48 5.27-7.25 9.7.14 6.02 6.13 10.74 11.96 10.44 6.45-.18 13 .51 19.38-.42 8.61-3.74 6.36-17.66-2.42-19.73-7.16-.81-14.52-.9-21.67.01z"/><path d="M411.19 156.91c6.6 7.53 11.65 17.9 10.14 28.07 2.12 3.36 4.36 6.65 6.82 9.77-2.83-3.5-6.45-6.77-7.87-11.12.96-9.72-3.54-19.03-9.09-26.72zm-37.89 17.58c9.5-5.12 20.3-1.76 30.31-.75l.3-1.67c.85 1.04 1.69 2.1 2.53 3.16-9.7-1.69-20.06-4.23-29.63-.58-5.34 2-8.98 7-9.9 12.54-1.99 9.82-2.8 21.04 3.05 29.76-4.94-4.99-6.05-12.23-5.55-18.95-.2-8.38.56-19.05 8.89-23.51zm50.74 30.81c2.71 0 5.43.04 8.14-.14-1.82.22-3.65.54-5.44.86 5.94 2.7 12.83 2.92 19.21 2.04 1.26 1.07 2.6 2.06 4.09 2.8-8.51-2.74-18.31-.14-26-5.56zm-40.84 18.06c3.7-.17 7.4-.14 11.11-.04.27.59.8 1.76 1.07 2.34-13.38 7.01-26.95 17.11-30.87 32.5-4 16.13 4.12 31.79 12.7 44.91-10.79-13.88-18.96-32.54-12.96-50.13 5.04-13.2 17.17-21.3 28.78-28.22-3.23-.77-6.57-.8-9.83-1.36zm93.4 1.27c5.8 8.04.75 20.92-9.76 21.05.22 5.33.67 11.17-2.4 15.85-2.66 4.38-8.98 4.01-11.91 8-1.71 5.04-1.98 10.79-5.98 14.78l-.48-1.67c2.73-4.49 3.33-9.76 5.08-14.61 3.49-3.38 9.36-3.62 11.99-8.03 3.03-4.74 2.14-10.55 2.33-15.86 10.3.64 14.35-11.29 11.13-19.51z"/><path d="M397.55 242.72c9.53-5.11 21.15-5.47 29.76-12.41.76-.11 2.27-.31 3.03-.42-6.96 7.34-17.62 8.11-26.52 11.8-8.77 3.06-16.09 9.29-20.84 17.24l-.4-3.3c3.92-5.38 8.94-10.02 14.97-12.91zm10.98 34.23c-.15-6.92 7.45-10.36 13.44-10.18 6.1.38 12.4.77 18.16 3.02-7.04-1.09-14.27-2.71-21.38-1.29-4.5.8-8.81 4.52-8.67 9.38-.17 9.03 1.93 18.35 6.99 25.94-6.42-7.26-8.33-17.47-8.54-26.87zm-16.87-1.39c.12-.23.34-.7.46-.94 3.07 4.72 2.11 10.67 4.17 15.8 2.91 8.63-1.61 17.04-3.73 25.26-2.61-3.74 1.04-8 1.8-11.81 3.64-9.46-1.05-19-2.7-28.31zm51.92 20.25c4.55 3.74 4.23 10.09 4.29 15.42-2.87-4.59-.48-11.01-4.29-15.42zm-21.53 19.67c7.98 1.5 16.04-3.34 23.81-.59-7.93-.73-16.32 3.99-23.81.59zm29.66-1.46c4.3 4.83-.35 11.27-3 15.75-7.16 11.42-23.19 9.05-33.93 4.74 8.3 2.2 17.73 3.92 25.87.37 6.6-4.56 12.04-12.51 11.06-20.86zm-70.46 10.44c5.77-2.46 11.63 1.19 16.86 3.39-4.69-1.66-9.77-4.4-14.8-2.51-12.47 5.01-24.84 14.01-28.28 27.69-4.27 17.51-1.74 36.16-8.13 53.26-.72-.52-1.44-1-2.13-1.54 8.81-17.98 3.04-39.3 10.49-57.71 4.6-11.1 15.38-17.99 25.99-22.58zm-69.64 33.86c.46.59.93 1.19 1.4 1.79-2.01 7.69 2.73 14.7 6.91 20.69-13.98.68-28.96.47-41.11-7.46 12.05 6.23 26.29 8.71 39.67 6.32-4.38-6.26-8.64-13.32-6.87-21.34z"/></g><g fill="#ff8e2c"><path d="M279.35 94.22c14.82 13.42 36.08 9.59 54.09 14.11 14.78 2.96 28.22 10.64 39.14 20.91-1.55-4.2-2.61-8.59-2.63-13.08 11.19 16.06 28.49 26.13 41.24 40.75 5.55 7.69 10.05 17 9.09 26.72 1.42 4.35 5.04 7.62 7.87 11.12 4.23 6.5 10.54 10.34 17.69 12.81l.11.5c-6.38.88-13.27.66-19.21-2.04 1.79-.32 3.62-.64 5.44-.86l1.1-.11c-3.86-4.26-8.6-7.67-12.02-12.33-6.85-8.33-11.49-18.83-20.89-24.77 1.2 1.35 2.39 2.71 3.54 4.12l-.3 1.67c-10.01-1.01-20.81-4.37-30.31.75-8.33 4.46-9.09 15.13-8.89 23.51-.5 6.72.61 13.96 5.55 18.95 3.34 3.83 8.39 5.48 13.24 6.41 3.26.56 6.6.59 9.83 1.36-11.61 6.92-23.74 15.02-28.78 28.22-6 17.59 2.17 36.25 12.96 50.13l.62.88c12.86-3.76 8.29-19.35 13.83-28.39 1.65 9.31 6.34 18.85 2.7 28.31-.76 3.81-4.41 8.07-1.8 11.81 9.14 8.59 21.35 12.61 33.21 15.83 4.54 1.03 9.57 2.17 14.03.27 5.47-3.07 7.96-9.6 8.23-15.61-.54-.32-1.63-.96-2.17-1.28-7.77-2.75-15.83 2.09-23.81.59-11.06-7.72-22.54-18.96-21.83-33.55.48-7.69 3.6-16.62 11.76-19.01 10.58-4.29 21.52 1.43 32.32.99-4.19-2.77-8.9-5.3-11.42-9.86-3.79-6.01-3.31-13.38-2.98-20.16 4.35 6.48 6.28 14.56 12.3 19.87 4.18 4.3 10.98 6.97 16.67 4.08 4.57-2.9 4.6-8.85 4.58-13.66-4.54-2.46-8.47-5.91-11.31-10.24 5.75.87 15.14 1.87 16.32-5.92-.22-9.71-11.47-12.91-18.42-17.16-1.49-.74-2.83-1.73-4.09-2.8l.51-.08c11.19 2.39 22.14 8.35 30.14 16.65 3.22 8.22-.83 20.15-11.13 19.51-.19 5.31.7 11.12-2.33 15.86-2.63 4.41-8.5 4.65-11.99 8.03-1.75 4.85-2.35 10.12-5.08 14.61-.45-.03-1.35-.1-1.79-.13-.59-4.32-.5-9.74-4.15-12.72-5.76-2.25-12.06-2.64-18.16-3.02-5.99-.18-13.59 3.26-13.44 10.18.21 9.4 2.12 19.61 8.54 26.87 3.62 4.51 9.28 6.84 14.95 7.33 5.24-4.07 8.22-10.33 10.65-16.36.23.26.68.76.91 1.02 3.81 4.41 1.42 10.83 4.29 15.42 1.26.95 2.57 1.83 3.84 2.79.98 8.35-4.46 16.3-11.06 20.86-8.14 3.55-17.57 1.83-25.87-.37-5.68-1.92-11.18-4.27-16.67-6.66-5.23-2.2-11.09-5.85-16.86-3.39-10.61 4.59-21.39 11.48-25.99 22.58-7.45 18.41-1.68 39.73-10.49 57.71-3.93-7.95-7.71-16.12-13.62-22.85-6.36-7-12.65-14.06-18.14-21.79-.47-.6-.94-1.2-1.4-1.79-1.77 8.02 2.49 15.08 6.87 21.34-13.38 2.39-27.62-.09-39.67-6.32-9.91-5.64-16.28-15.75-19.71-26.38-.19-.47-.56-1.41-.74-1.88-4.87 16.71-6.48 34.2-8.08 51.48-.53-.11-1.57-.32-2.09-.43-3.94-10.2-9.82-19.41-15.49-28.7-6.81-11.03-8.84-24.18-8.98-36.93 8.11-.28 16.42 1.33 24.4-.57 8.29-2.73 8.22-17.15-1.22-17.97-28.17-.57-56.38.09-84.56-.32-11.13-.39-22.27-.04-33.41-.17-5.57-.05-11.39-4.58-11.32-10.46-.41-5.17 4.06-10.25 9.34-10.04 9.17-.15 18.34-.04 27.51-.18 15.52.1 31.04-.01 46.56.08 3.82-.04 8.15.03 11.19-2.68 4.61-3.89 4.32-12.38-1.14-15.39-1.72-1.36-4-1.33-6.08-1.37-42-.02-84 .04-126-.01-5.49.27-11.6-2.75-12.89-8.46-1.62-6.1 3.79-12.3 9.91-12.29 23.08-.11 46.18.14 69.26-.12 36.92.25 73.83.06 110.75.17 3.78-.13 8.2.3 11.19-2.52 4.6-3.93 4.2-12.27-1.13-15.4-1.43-1.14-3.28-1.34-5.04-1.33-76.35.04-152.7-.04-229.05.01-5.33.22-10.97-3.17-12.24-8.55-1.67-6.09 3.86-12.72 10.22-11.92 40.53-.22 81.07.07 121.6-.07 18.18-.07 36.39.36 54.56-.19 10.01.06 12.83-17.19 2.19-18.67-17.26-.86-34.61.04-51.9-.43-7.15-.36-14.32-.11-21.47-.19-5.75.26-11.9-4.38-11.78-10.44-.51-5.4 4.41-10.38 9.8-10.11 10.65-.12 21.3-.01 31.96-.12 30.97-.07 61.96.16 92.93-.08 8.87.11 12.9-13.41 5.06-17.8-1.7-1.25-3.84-1.49-5.88-1.46-33.03.05-66.06-.01-99.09.04-5.89.29-12.36-4.14-12.19-10.49-.58-5.65 4.79-10.4 10.24-10.23 11.95-.36 23.9-.07 35.86-.13 8.01-.29 16.6 1.13 23.98-2.82 9.71-5.01 18.27-12.59 29.19-14.97 18.88-4.53 38.19.56 56.29 6-9.04-6.39-17.83-14.06-21.97-24.63z"/><path d="M66.47 171.67c9.68-1.76 19.7-.6 29.53-.9 5.69-.48 12.09 4.17 11.54 10.26-.02 6.26-6.47 11.21-12.53 10.47-8.93-.46-18.03.83-26.84-.71-8.85-2.21-10.24-15.49-1.7-19.12zm325.67 21.59c8.96-3.62 18.31 2.02 23.05 9.58 3.07 3.63 4.25 10.15 10.05 9.95 1.2 3.22 2.91 6.19 4.78 9.07-13.28-3.6-16.89-19.41-28.74-25.12-3-1.28-6.15-2.18-9.14-3.48zm8.41 9.73c5.67 5.83 12.92 9.55 19.22 14.5-.39.83-1.17 2.49-1.56 3.31-9.89.75-16.79-8.81-17.66-17.81zm-2.16 27.37c8.91-6.34 19.76.06 29.62-1.66l-.7 1.61c-8.61 6.94-20.23 7.3-29.76 12.41-6.03 2.89-11.05 7.53-14.97 12.91-.79 1.08-1.52 2.22-2.27 3.33 1.9-11.4 7.62-22.85 18.08-28.6zM75.24 291.32c7.15-.91 14.51-.82 21.67-.01 8.78 2.07 11.03 15.99 2.42 19.73-6.38.93-12.93.24-19.38.42-5.83.3-11.82-4.42-11.96-10.44-.23-4.43 2.95-8.66 7.25-9.7z"/></g></svg>