<?xml version="1.0" encoding="UTF-8"?>
<svg width="943px" height="936px" viewBox="0 0 943 936" version="1.1" xmlns="http://www.w3.org/2000/svg" xmlns:xlink="http://www.w3.org/1999/xlink">
    <title>Group 3</title>
    <g id="Page-1" stroke="none" stroke-width="1" fill="none" fill-rule="evenodd">
        <g id="Group-3" transform="translate(0.000000, 0.000000)">
            <g id="Group-2" transform="translate(471.500000, 468.000000) rotate(-180.000000) translate(-471.500000, -468.000000) ">
                <path d="M471.5,1.13686838e-13 C731.90226,1.13686838e-13 943,209.751528 943,468.493151 L943,468.493151 L943,936 C753.488503,907.419905 753.488503,846.352597 731.314934,859.715362 C655.71571,905.274769 568.89456,936 473.472803,936 C213.070544,936 -1.13686838e-13,727.234773 -1.13686838e-13,468.493151 C-1.13686838e-13,209.751528 211.09774,1.13686838e-13 471.5,1.13686838e-13 Z M471.937238,276.794521 C366.726994,276.794521 281.437238,362.240669 281.437238,467.643836 C281.437238,573.047002 366.726994,658.493151 471.937238,658.493151 C577.147483,658.493151 662.437238,573.047002 662.437238,467.643836 C662.437238,362.240669 577.147483,276.794521 471.937238,276.794521 Z" id="Combined-Shape" fill="#FE7A0D"></path>
                <ellipse id="Oval-Copy" stroke="#FFFFFF" stroke-width="10" fill="#4E0403" cx="347.402462" cy="556.493151" rx="99.8078165" ry="100"></ellipse>
            </g>
            <path d="M458.027197,617.774383 C492.354009,627.832608 527.197812,616.865135 562.558605,584.871962 C597.919398,552.878789 615.349384,524.408709 614.848561,499.46172" id="Line" stroke="#4E0403" stroke-width="20" stroke-linecap="round" stroke-linejoin="round" stroke-dasharray="50,30"></path>
        </g>
    </g>
</svg>